# xmcd CD database file
#
# Track frame offsets:
#	150
#	12985
#	23878
#	33832
#	44723
#	56879
#	70055
#	80837
#	93758
#	102816
#	115088
#	125824
#	136827
#	146943
#	155489
#	168308
#	178656
#	188874
#	200144
#	209059
#	222195
#	232547
#	243289
#	256534
#	268566
#
# Disc length: 3752 seconds
#
# Revision: 0
# Processed by: cddbd v1.5.1PL2 Copyright (c) Steve Scherf et al.
# Submitted via: CDex 1.40Beta9
#
DISCID=680ea619
DTITLE=Larry Robichaud - Les grands succès
DYEAR=2005
DGENRE=Country
TTITLE0=New-Brunswick, Gaspésie, Abitibi
TTITLE1=Le pêcheur acadien
TTITLE2=On est bien l'un sur l'autre
TTITLE3=Rose de mon coeur
TTITLE4=J'ai un bazou qui ne veut pas partir
TTITLE5=Je veux retourner chez moi
TTITLE6=Petite fille
TTITLE7=Hello Vietnam
TTITLE8=Cher papa
TTITLE9=Je vais chanter
TTITLE10=Mon épaule pour pleurer
TTITLE11=Je t'embrasse pour la dernière fois
TTITLE12=Je t'attendrai
TTITLE13=La vie d'un bûcheron
TTITLE14=Je ne suis qu'un numéro
TTITLE15=Tu n'es plus la même
TTITLE16=Un instant de bonheur
TTITLE17=Chiquita
TTITLE18=Les avortements
TTITLE19=Le condamné
TTITLE20=À ton mariage
TTITLE21=La chanson de l'aveugle
TTITLE22=Adieu toi mon petit
TTITLE23=La complainte d'un infirme
TTITLE24=Qui de nous deux
EXTD=YEAR: 2005 ID3G: 2
EXTT0=
EXTT1=
EXTT2=
EXTT3=
EXTT4=
EXTT5=
EXTT6=
EXTT7=
EXTT8=
EXTT9=
EXTT10=
EXTT11=
EXTT12=
EXTT13=
EXTT14=
EXTT15=
EXTT16=
EXTT17=
EXTT18=
EXTT19=
EXTT20=
EXTT21=
EXTT22=
EXTT23=
EXTT24=
PLAYORDER=
